<?xml version="1.0" encoding="UTF-8" standalone="no"?><!DOCTYPE svg PUBLIC "-//W3C//DTD SVG 1.1//EN" "http://www.w3.org/Graphics/SVG/1.1/DTD/svg11.dtd"><svg width="100%" height="100%" viewBox="0 0 60 60" version="1.1" xmlns="http://www.w3.org/2000/svg" xmlns:xlink="http://www.w3.org/1999/xlink" xml:space="preserve" xmlns:serif="http://www.serif.com/" style="fill-rule:evenodd;clip-rule:evenodd;stroke-linejoin:round;stroke-miterlimit:2;"><rect x="0" y="0" width="60" height="60" style="fill:#154273;"/><path d="M31.038,41.711l-1.018,0l0,-2.951l1.018,0l0,2.951Zm4.622,-13.014l-1.018,0l0,-2.951l1.018,0l0,2.951Zm-18.969,-5.094c-0.081,0 -0.603,0 -0.603,0.111c0,0.112 0.241,0.056 0.603,0.125c0.817,0.14 1.138,0.571 1.714,0.571c0.523,0 1.059,-0.362 0.844,-1.155c-0.04,-0.125 -0.107,-0.098 -0.12,-0.014c-0.081,0.348 -0.496,0.557 -0.938,0.557c-0.536,0 -0.656,-0.195 -1.5,-0.195Zm-5.64,2.951c0.094,0.125 1.058,1.433 -0.429,1.934c-0.067,0.028 -0.094,0.084 0.014,0.14c1.098,0.473 1.634,-0.404 1.634,-0.404c0.549,1.308 -0.295,2.032 -0.295,2.032c0.121,0.237 0.643,0.626 1.434,0.821c0.294,-0.167 0.723,-0.487 0.897,-0.988c0,0 0.214,0.571 0.014,1.113c2.237,0.209 3.027,-1.642 4.755,-1.308c0.054,0.014 0.067,-0.028 0.067,-0.083c0,-1.142 -0.67,-3.243 -2.813,-3.675c-2.13,-0.431 -1.554,-1.336 -1.554,-1.336c0.898,-0.042 1.42,0.362 1.42,0.362c0.161,-0.279 -0.067,-0.585 -0.067,-0.585c0.08,-0.111 0.134,-0.487 0.134,-0.487c-1.005,0 -1.273,-0.223 -1.273,-0.223c-0.16,-0.626 0.268,-1.503 1.769,-0.556c0.375,-0.348 0.348,-0.877 0.348,-0.877c0.107,-0.056 0.188,-0.237 0.188,-0.32c0,-0.265 -1.206,-0.961 -1.514,-1.044c-0.081,-0.376 -0.536,-0.919 -1.956,-0.724c-0.67,0.083 -1.152,-0.098 -0.924,-0.501c0.04,-0.07 -0.081,-0.084 -0.148,-0.014c-0.161,0.167 -0.362,0.612 0.215,0.919c0.643,0.334 0.683,1.016 0.696,1.113c0.014,0.139 -0.161,0.153 -0.187,0.014c-0.295,-1.141 -1.796,-1.378 -2.68,-0.78c0.054,0.613 0.684,1.017 1.032,1.017c0.201,0 0.469,-0.209 0.469,-0.488c0,-0.139 0.067,-0.125 0.107,-0.014c0.147,0.404 -0.429,1.239 -1.286,0.738c-0.871,0.905 -0.523,2.032 -0.442,2.436c0.16,0.738 -0.188,1.461 -0.831,1.127c-0.027,-0.014 -0.067,-0.027 -0.067,0.056c0,0.459 0.576,0.988 1.273,0.585Zm4.796,-4.566c-0.402,0.474 -1.072,0.362 -1.233,-0.417c0.844,-0.042 1.206,0.041 1.233,0.417Zm25.989,1.81c-0.442,0 -0.858,-0.195 -0.938,-0.557c-0.013,-0.084 -0.094,-0.125 -0.121,0.014c-0.214,0.779 0.322,1.155 0.844,1.155c0.576,0 0.898,-0.431 1.715,-0.571c0.362,-0.069 0.603,0 0.603,-0.125c0,-0.111 -0.536,-0.111 -0.603,-0.111c-0.844,0 -0.951,0.195 -1.5,0.195Zm8.426,2.171c0,-0.083 -0.027,-0.07 -0.067,-0.056c-0.643,0.334 -0.991,-0.389 -0.831,-1.127c0.094,-0.418 0.443,-1.531 -0.442,-2.436c-0.857,0.515 -1.433,-0.334 -1.286,-0.738c0.041,-0.111 0.107,-0.125 0.107,0.014c0,0.279 0.282,0.488 0.469,0.488c0.349,0 0.978,-0.404 1.032,-1.017c-0.884,-0.598 -2.385,-0.361 -2.679,0.78c-0.041,0.139 -0.201,0.125 -0.188,-0.014c0,-0.097 0.04,-0.779 0.697,-1.113c0.589,-0.307 0.375,-0.752 0.214,-0.919c-0.067,-0.07 -0.188,-0.056 -0.147,0.014c0.227,0.403 -0.255,0.584 -0.925,0.501c-1.406,-0.195 -1.875,0.348 -1.956,0.724c-0.308,0.083 -1.513,0.779 -1.513,1.044c0,0.083 0.067,0.264 0.187,0.32c0,0 -0.027,0.529 0.349,0.877c1.5,-0.947 1.915,-0.056 1.768,0.556c0,0 -0.268,0.223 -1.273,0.223c0,0 0.054,0.376 0.134,0.487c0,0 -0.228,0.306 -0.067,0.585c0,0 0.523,-0.404 1.42,-0.362c0,0 0.576,0.905 -1.554,1.336c-2.13,0.432 -2.813,2.519 -2.813,3.675c0,0.055 0.027,0.083 0.067,0.083c1.728,-0.334 2.518,1.531 4.756,1.308c-0.201,-0.542 0.013,-1.113 0.013,-1.113c0.174,0.487 0.603,0.821 0.898,0.988c0.79,-0.181 1.312,-0.584 1.433,-0.821c0,0 -0.844,-0.724 -0.295,-2.032c0,0 0.536,0.877 1.635,0.404c0.093,-0.042 0.08,-0.112 0.013,-0.14c-1.487,-0.501 -0.522,-1.795 -0.429,-1.934c0.697,0.403 1.273,-0.126 1.273,-0.585Zm-4.849,-4.398c-0.161,0.779 -0.831,0.891 -1.233,0.417c0.04,-0.376 0.402,-0.459 1.233,-0.417Zm-15.781,-13.07c0,0.195 0.08,0.362 0.147,0.459c0.134,0.195 0.107,0.307 0.054,0.362c-0.067,0.07 -0.161,0.084 -0.349,-0.055c-0.094,-0.07 -0.254,-0.154 -0.442,-0.154c-0.321,0 -0.482,0.223 -0.482,0.404c0,0.195 0.161,0.404 0.482,0.404c0.188,0 0.348,-0.084 0.442,-0.153c0.188,-0.14 0.295,-0.112 0.349,-0.056c0.067,0.07 -0.027,0.738 -0.108,1.267c-0.535,0.111 -0.79,0.556 -0.79,0.821c0,0.668 0.683,1.058 1.098,1.28c0.402,-0.222 1.099,-0.612 1.099,-1.28c0,-0.265 -0.255,-0.71 -0.79,-0.821c-0.067,-0.529 -0.161,-1.211 -0.108,-1.267c0.067,-0.07 0.161,-0.084 0.349,0.056c0.094,0.069 0.254,0.153 0.442,0.153c0.321,0 0.482,-0.223 0.482,-0.404c0,-0.195 -0.161,-0.404 -0.482,-0.404c-0.188,0 -0.348,0.084 -0.442,0.154c-0.188,0.139 -0.295,0.111 -0.349,0.055c-0.067,-0.069 -0.08,-0.167 0.054,-0.362c0.067,-0.097 0.147,-0.264 0.147,-0.459c0,-0.334 -0.214,-0.501 -0.388,-0.501c-0.214,0 -0.415,0.167 -0.415,0.501Zm0.388,4.969c-0.429,0 -0.79,0.362 -0.79,0.821c0,0.446 0.348,0.821 0.79,0.821c0.429,0 0.79,-0.361 0.79,-0.821c0,-0.459 -0.361,-0.821 -0.79,-0.821Zm0,7.836c3.148,0 4.917,0.627 4.917,0.627c0.013,-1.643 0,-2.575 0.911,-2.436c-0.496,-1.392 1.647,-1.935 1.647,-3.73c0,-1.183 -0.804,-1.323 -1.045,-1.323c-0.71,0 -0.602,0.488 -1.205,0.488c-0.081,0 -0.148,-0.014 -0.148,0.041c0,0.209 0.174,0.557 0.442,0.557c0.375,0 0.375,-0.39 0.657,-0.39c0.12,0 0.295,0.098 0.295,0.501c0,0.766 -0.483,1.615 -1.059,2.283c-0.134,-0.195 -0.308,-0.306 -0.522,-0.306c-0.335,0 -0.63,0.362 -0.63,0.821c0,0.167 0.027,0.292 0.081,0.432c-0.188,0.111 -0.362,0.167 -0.483,0.167c-0.254,0 -0.643,-0.112 -0.643,-0.696c0,-1.309 1.688,-2.464 1.688,-4.12c0,-0.794 -0.509,-1.587 -1.567,-1.587c-1.139,0 -0.925,1.086 -1.916,1.086c-0.04,0 -0.08,0.014 -0.08,0.055c0,0.07 0.174,0.668 0.683,0.668c0.549,0 0.697,-0.988 1.179,-0.988c0.187,0 0.455,0.111 0.455,0.78c0,0.515 -0.241,1.35 -0.603,2.157c-0.133,-0.139 -0.308,-0.237 -0.495,-0.237c-0.429,0 -0.724,0.432 -0.724,0.933c0,0.32 0.121,0.626 0.335,0.835c-0.254,0.334 -0.509,0.599 -0.844,0.599c-0.683,0 -0.978,-0.404 -0.978,-0.836c0,-0.473 0.831,-0.64 0.831,-1.391c0,-0.502 -0.308,-0.794 -0.616,-0.794c-0.322,0 -0.496,0.223 -0.523,0.223c-0.04,0 -0.201,-0.223 -0.522,-0.223c-0.308,0 -0.616,0.279 -0.616,0.794c0,0.737 0.83,0.918 0.83,1.391c0,0.432 -0.295,0.836 -0.978,0.836c-0.348,0 -0.603,-0.265 -0.844,-0.599c0.215,-0.209 0.335,-0.515 0.335,-0.835c0,-0.515 -0.308,-0.933 -0.723,-0.933c-0.201,0 -0.375,0.098 -0.496,0.237c-0.348,-0.807 -0.603,-1.642 -0.603,-2.157c0,-0.669 0.268,-0.78 0.456,-0.78c0.482,0 0.643,0.988 1.179,0.988c0.509,0 0.683,-0.598 0.683,-0.668c0,-0.041 -0.04,-0.055 -0.081,-0.055c-0.991,0 -0.777,-1.086 -1.915,-1.086c-1.059,0 -1.568,0.793 -1.568,1.587c0,1.656 1.688,2.811 1.688,4.12c0,0.584 -0.388,0.696 -0.643,0.696c-0.134,0 -0.294,-0.07 -0.482,-0.167c0.054,-0.14 0.08,-0.265 0.08,-0.432c0,-0.459 -0.294,-0.821 -0.629,-0.821c-0.215,0 -0.389,0.111 -0.523,0.306c-0.576,-0.654 -1.058,-1.517 -1.058,-2.283c0,-0.389 0.174,-0.501 0.295,-0.501c0.281,0 0.281,0.39 0.656,0.39c0.281,0 0.442,-0.362 0.442,-0.557c0,-0.055 -0.08,-0.041 -0.147,-0.041c-0.603,0 -0.496,-0.488 -1.206,-0.488c-0.241,0 -1.045,0.14 -1.045,1.323c0,1.809 2.144,2.352 1.648,3.73c0.911,-0.139 0.898,0.779 0.911,2.436c-0.08,0 1.688,-0.627 4.836,-0.627Zm-5.76,2.436c-0.858,0.195 -1.474,0.376 -1.742,0.459c0.014,-0.389 0.161,-0.751 0.496,-0.835c0.04,-0.014 0.053,-0.069 0.013,-0.097c-0.763,-0.529 -1.165,0.487 -1.179,0.515c-0.268,-0.028 -0.683,0.069 -0.683,0.445c0,1.142 -2.492,1.768 -3.081,1.851c1.018,0.404 1.447,1.74 1.447,1.74c0.737,-0.765 1.607,-1.447 1.795,-1.447c0.201,0 0.268,0.25 0.281,0.403c0,0.056 0.054,0.07 0.081,0.028c0.388,-0.598 0.2,-0.738 0.174,-0.918c-0.027,-0.14 0.013,-0.669 0.576,-0.599l0,7.572l-0.295,0.055c-0.134,0.028 -1.192,-0.918 -2.425,-1.795c-1.219,-0.877 -1.875,-0.348 -3.268,0.431c-1.822,1.03 -3.658,0.098 -3.658,0.098c-1.567,1.169 -2.103,4.537 -2.103,4.537c-0.308,0.14 -0.83,0.293 -1.326,0.293c-1.192,0 -1.42,-0.752 -1.42,-1.211c0,-1.921 2.317,-2.742 2.317,-4.635c0,-0.46 -0.201,-2.325 -2.424,-2.325l-1.996,0c-0.831,0 -1.045,-0.626 -1.152,-0.863c-0.041,-0.083 -0.121,-0.027 -0.094,0.042c0.067,0.153 -0.094,0.404 -0.094,0.877c0,0.766 0.429,1.225 1.246,1.225c0.375,0 0.71,-0.111 0.83,-0.181c0.081,-0.042 0.121,0.028 0.081,0.07c-0.348,0.431 -0.375,1.224 -0.241,1.419c0.04,0.042 0.08,0.028 0.08,0c0.201,-0.807 0.924,-1.586 1.916,-1.586c1.205,0 1.205,1.071 1.205,1.322c0,1.545 -2.612,2.672 -2.612,4.788c0,2.157 2.184,2.617 3.456,2.269c-0.08,2.157 -2.451,2.881 -2.518,1.35c0,-0.07 -0.054,-0.098 -0.094,0c-0.295,0.765 -0.187,1.433 0.737,1.642c0.067,0.014 0.027,0.056 -0.027,0.098c-0.897,0.626 -0.402,3.006 -0.362,3.702c0.067,1.002 -0.897,0.891 -0.978,0.863c-0.04,-0.014 -0.08,0 -0.013,0.083c0.683,0.863 1.527,0.07 1.527,0.07c0.643,0.209 0.241,0.779 -0.187,1.072c-0.067,0.041 -0.067,0.097 0.013,0.097c0.094,0 1.085,0.098 1.259,-0.724c0.442,0.543 1.085,0.348 1.219,0.279c0.188,-0.098 1.112,-0.446 1.206,0.626c0,0.084 0.054,0.028 0.08,-0.014c0.697,-0.918 -0.053,-1.475 -0.468,-1.545c0.04,-0.055 0.589,-0.529 1.098,0.139c0.04,0.042 0.067,0.056 0.067,-0.041c0.054,-1.156 -0.844,-1.267 -1.433,-0.766c-0.027,-0.125 -0.228,-0.765 0.656,-0.752c0.027,0 0.067,-0.027 0.014,-0.083c-0.684,-0.752 -1.26,-0.07 -1.38,0.097c-0.308,0.376 -1.072,0.223 -1.139,0.223c0.241,-4.022 3.644,-2.603 4.113,-4.551c0.026,-0.098 0.067,-0.07 0.08,-0.028c0.134,0.473 1.286,0.543 1.5,-0.39c0.014,-0.056 0,-0.097 -0.04,-0.056c-0.991,1.03 -3.215,-2.171 -0.174,-4.774c2.586,-2.213 4.917,-0.988 5.787,-0.25c0.041,0.32 -0.134,0.431 -0.254,0.459c-0.04,0.014 -0.054,0.056 0.013,0.084c0.241,0.097 0.59,0.069 0.764,-0.167c0.562,0.403 0.08,0.918 -0.148,1.057c-0.053,0.042 -0.026,0.07 0.014,0.084c0.509,0.097 0.924,-0.445 0.951,-0.752l0.08,0.056l0,2.283c0,3.257 3.617,3.702 7.583,6.458c3.965,-2.756 7.582,-3.215 7.582,-6.458l0,-2.283l0.08,-0.056c0.027,0.307 0.443,0.849 0.952,0.752c0.053,-0.014 0.067,-0.042 0.013,-0.084c-0.228,-0.139 -0.697,-0.654 -0.147,-1.057c0.16,0.236 0.509,0.264 0.763,0.167c0.067,-0.028 0.054,-0.07 0.014,-0.084c-0.121,-0.042 -0.309,-0.139 -0.255,-0.459c0.884,-0.724 3.202,-1.963 5.787,0.25c3.028,2.603 0.804,5.804 -0.174,4.774c-0.04,-0.041 -0.053,0 -0.04,0.056c0.214,0.947 1.366,0.877 1.5,0.39c0.014,-0.042 0.054,-0.07 0.081,0.028c0.469,1.948 3.885,0.529 4.112,4.551c-0.067,0.014 -0.83,0.153 -1.138,-0.223c-0.134,-0.167 -0.697,-0.849 -1.38,-0.097c-0.04,0.042 0,0.083 0.013,0.083c0.884,-0.027 0.697,0.627 0.657,0.752c-0.59,-0.501 -1.487,-0.404 -1.434,0.766c0,0.097 0.04,0.083 0.067,0.041c0.509,-0.668 1.059,-0.181 1.099,-0.139c-0.416,0.07 -1.166,0.627 -0.469,1.545c0.027,0.042 0.067,0.098 0.08,0.014c0.094,-1.086 1.018,-0.724 1.206,-0.626c0.134,0.069 0.777,0.264 1.219,-0.279c0.174,0.822 1.166,0.724 1.259,0.724c0.067,0 0.081,-0.056 0.014,-0.097c-0.429,-0.293 -0.817,-0.863 -0.188,-1.072c0,0 0.844,0.793 1.527,-0.07c0.054,-0.083 0.027,-0.097 -0.013,-0.083c-0.08,0.028 -1.045,0.153 -0.978,-0.863c0.04,-0.696 0.536,-3.076 -0.375,-3.675c-0.054,-0.041 -0.094,-0.069 -0.027,-0.097c0.924,-0.209 1.045,-0.877 0.737,-1.642c-0.04,-0.098 -0.094,-0.084 -0.094,0c-0.067,1.545 -2.438,0.807 -2.518,-1.351c1.272,0.334 3.456,-0.125 3.456,-2.268c0,-2.116 -2.612,-3.257 -2.612,-4.788c0,-0.265 0,-1.323 1.205,-1.323c0.992,0 1.715,0.766 1.916,1.587c0.013,0.042 0.054,0.056 0.08,0c0.148,-0.195 0.121,-1.002 -0.241,-1.42c-0.04,-0.041 0,-0.111 0.081,-0.069c0.107,0.069 0.455,0.181 0.83,0.181c0.804,0 1.246,-0.46 1.246,-1.225c0,-0.487 -0.161,-0.724 -0.094,-0.877c0.027,-0.07 -0.053,-0.125 -0.094,-0.028c-0.12,0.237 -0.321,0.863 -1.152,0.863l-1.996,0c-2.223,0 -2.424,1.865 -2.424,2.325c0,1.893 2.317,2.714 2.317,4.634c0,0.446 -0.214,1.211 -1.42,1.211c-0.496,0 -1.005,-0.139 -1.326,-0.292c0,0 -0.536,-3.368 -2.103,-4.537c0,0 -1.836,0.932 -3.658,-0.098c-1.393,-0.779 -2.049,-1.308 -3.268,-0.431c-1.219,0.877 -2.291,1.823 -2.412,1.795l-0.294,-0.055l0,-7.572c0.562,-0.056 0.602,0.459 0.576,0.598c-0.027,0.181 -0.215,0.32 0.174,0.919c0.027,0.042 0.08,0.028 0.08,-0.028c0.014,-0.153 0.094,-0.404 0.282,-0.404c0.187,0 1.058,0.682 1.795,1.448c0,0 0.428,-1.336 1.446,-1.74c-0.576,-0.097 -3.081,-0.724 -3.081,-1.851c0,-0.376 -0.415,-0.473 -0.683,-0.445c-0.013,-0.028 -0.415,-1.044 -1.179,-0.515c-0.04,0.027 -0.027,0.083 0.014,0.097c0.335,0.084 0.482,0.445 0.495,0.835c-0.723,-0.236 -3.831,-1.141 -7.502,-1.141c-1.781,0 -3.429,0.209 -4.742,0.459l0,2.631l-0.991,0l0,-2.45m-6.779,26.891c-0.268,-0.111 -0.455,-0.292 -0.455,-0.668l0,-1.629c-0.456,-0.167 -1.675,-0.654 -4.126,-0.654c-2.037,0 -2.68,0.473 -2.707,0.64l-0.535,3.104c0,0 0.83,-0.779 3.777,-0.584c3.564,0.236 7.248,2.422 7.248,0.097l0,-1.364c-2.8,0 -3.202,0.919 -3.202,1.058Zm21.89,-1.058l0,1.364c0,2.325 3.684,0.139 7.247,-0.097c2.947,-0.195 3.778,0.584 3.778,0.584l-0.536,-3.104c-0.027,-0.167 -0.67,-0.64 -2.706,-0.64c-2.451,0 -3.684,0.487 -4.126,0.654l0,1.629c0,0.376 -0.174,0.557 -0.456,0.668c-0.013,-0.139 -0.415,-1.058 -3.201,-1.058Zm-9.351,-1.406c5.734,0 11.548,0.307 12.311,1.211c0.067,0.07 0.081,0 0.081,-0.055l0,-3.16c0,-0.919 -6.002,-1.461 -12.392,-1.461c-6.39,0 -12.392,0.529 -12.392,1.461l0,3.16c0,0.055 0.027,0.125 0.081,0.055c0.763,-0.904 6.577,-1.211 12.311,-1.211Zm-5.104,-14.879l-0.576,-0.153l-0.054,0.07l-0.669,-0.306l0.602,0c0.054,0 0.054,-0.042 0.027,-0.07c-0.268,-0.278 -0.509,-0.529 -0.509,-0.529c0,0 0.268,0.111 0.67,0.251c0.04,0.014 0.067,-0.014 0.04,-0.042c-0.187,-0.292 -0.442,-0.668 -0.442,-0.668c0,0 0.536,0.376 0.657,0.459c0.04,0.028 0.067,0 0.053,-0.042c-0.147,-0.376 -0.308,-0.793 -0.308,-0.793l0.589,0.585c0.027,0.027 0.054,0.013 0.054,-0.028c-0.054,-0.279 -0.161,-0.794 -0.161,-0.794l0.442,0.668c0.027,0.042 0.054,0.028 0.054,-0.014c0,-0.125 0.013,-0.723 0.013,-0.723c0,0 0.188,0.431 0.282,0.668c0.013,0.042 0.053,0.042 0.08,-0.014c0.027,-0.07 0.228,-0.557 0.228,-0.557l0.027,0.752l-0.094,0.014l-0.121,0.904c0.871,-0.208 1.943,-1.753 2.773,-1.753c0.978,0 1.34,1.197 3.162,0.584c0.455,0.71 0.616,1.323 0.79,2.172c0.697,0.682 1.688,0.459 1.688,-0.265c0,-0.974 -1.031,-1.169 -1.031,-2.185c0,-0.459 0.308,-1.114 1.152,-1.114c0.442,0 1.098,0.195 1.473,0.195c0.442,0 0.536,-0.334 0.59,-0.473c0.04,-0.097 0.161,-0.07 0.147,0.014c-0.013,0.097 0.054,0.223 0.054,0.445c0,0.641 -0.911,0.724 -1.018,0.654c-0.041,-0.027 -0.081,0.014 -0.041,0.042c0.134,0.112 0.108,0.501 -0.053,0.738c-0.014,0.028 -0.04,0.028 -0.054,0c-0.094,-0.459 -0.616,-1.03 -1.085,-1.03c-0.174,0 -0.509,0.097 -0.509,0.515c0,0.585 1.125,1.113 1.125,2.31c0,1.253 -1.192,1.545 -2.398,1.239c0.041,1.183 1.742,1.893 1.782,1.044c0,-0.056 0.027,-0.028 0.054,0c0.254,0.362 0.134,0.64 -0.188,0.78c0.295,0.139 0.348,0.765 0.442,1.127c0.134,0.557 0.697,0.251 0.724,0.237c0.026,-0.014 0.04,0 0.026,0.027c-0.214,0.585 -0.79,0.362 -0.79,0.362c-0.295,0.223 0.067,0.418 0.335,0.501c0.04,0.014 0.04,0.042 0,0.056c-0.201,0.07 -0.63,0.209 -0.831,-0.153c-0.147,0.39 -0.468,0.376 -0.589,0.376c-0.214,0 -0.362,0.236 -0.308,0.543c0,0.027 -0.014,0.041 -0.04,0.014c-0.523,-0.362 -0.228,-0.78 -0.014,-0.891c-0.04,-0.028 -0.402,-0.181 -0.549,0.264c-0.013,0.028 -0.027,0.042 -0.04,0c-0.228,-0.626 0.268,-0.821 0.629,-0.654c-0.026,-0.084 -0.214,-0.404 -0.683,-0.292c-0.027,0 -0.04,0 -0.027,-0.028c0.081,-0.195 0.309,-0.473 0.737,-0.195c0.215,0.139 0.603,-0.07 0.63,-0.084c-0.764,-1.572 -2.237,-0.25 -2.572,-1.489c0,-0.028 -0.04,-0.042 -0.054,0.014c-0.08,0.265 -0.723,0.278 -0.844,-0.237c-0.013,-0.041 0,-0.041 0.027,-0.013c0.094,0.097 0.295,0.194 0.563,-0.209c0.174,-0.265 0.201,-0.613 0.201,-0.863c0,-0.961 -0.925,-2.561 -2.358,-2.561c-0.911,0 -1.889,0.362 -2.612,0.918l0.669,0.167c-0.067,0.71 -0.723,1.128 -1.326,0.947l0.107,-0.807c-0.107,0.027 -0.375,0.125 -0.509,0.334c-0.013,0.014 -0.027,0.014 -0.04,0c-0.121,-0.46 0.241,-0.696 0.362,-0.752c0.013,-0.014 0.013,-0.014 -0.014,-0.014c-0.321,-0.014 -0.509,0.237 -0.562,0.32c-0.014,0.014 -0.027,0.014 -0.027,0c-0.067,-0.111 -0.121,-0.348 0.04,-0.515Zm1.996,5.47c-0.254,0.334 -0.482,0.014 -0.83,0.014c-0.322,0 -0.376,0.279 -0.376,0.39c0,0.014 -0.013,0.028 -0.026,0c-0.362,-0.515 0.04,-0.793 0.281,-0.835c-0.04,-0.042 -0.389,-0.279 -0.616,0.056c-0.014,0.027 -0.04,0.013 -0.04,-0.014c-0.014,-0.641 0.468,-0.682 0.79,-0.404c0.054,-0.237 -0.094,-0.404 -0.348,-0.418c-0.027,0 -0.041,-0.027 -0.027,-0.041c0.107,-0.126 0.214,-0.181 0.321,-0.181c0.335,0 0.389,0.445 0.603,0.445c0.335,0 0.804,-0.473 0.858,-0.515c-0.014,-0.028 -0.335,-0.919 -0.268,-1.461c0,-0.028 -0.014,-0.028 -0.027,-0.014c-0.161,0.097 -0.576,0.097 -0.576,-0.432c0,-0.042 0.013,-0.042 0.04,-0.014c0.174,0.265 0.469,-0.028 0.616,-0.208c0.161,-0.181 1.005,-1.448 2.117,-1.448c0.241,0 0.563,0.139 0.817,0.32c-0.388,0.487 0,0.961 0.281,0.905c0.041,0 0.041,0.028 0.014,0.042c-1.487,0.584 -2.144,0.807 -2.144,2.101c0,0.668 0.228,1.044 0.603,0.961c0.027,-0.014 0.04,0 0.014,0.028c-0.134,0.167 -0.295,0.222 -0.429,0.222c-0.308,0 -0.362,-0.181 -0.523,-0.181c-0.174,0 -0.723,0.334 -0.723,0.627c0,0.111 0.067,0.25 0.255,0.389c0.013,0.014 0,0.014 0,0.028c-0.121,0.042 -0.55,0.07 -0.657,-0.362Zm3.912,-12.54c-0.469,-0.028 -0.764,0.083 -0.75,0.236c0.227,0.251 0.522,0.223 0.75,-0.236Zm-1.715,1.197c0.322,-0.084 0.683,-0.042 0.724,-0.028c0.053,0.014 0.053,0.097 -0.014,0.111c-0.683,0.098 -0.71,0.418 -1.152,0.418c-0.281,0 -0.603,-0.307 -0.482,-0.738c0.013,-0.056 0.053,-0.056 0.067,0c0.053,0.167 0.321,0.376 0.857,0.237Zm-8.868,15.728c0.455,0.598 0.884,0.041 1.473,0.041c0.295,0 0.643,0.098 0.71,0.71c0,0.028 0.027,0.042 0.054,0c0.643,-0.918 -0.094,-1.433 -0.509,-1.503c0.094,-0.083 0.723,-0.487 1.125,0.111c0.027,0.028 0.067,0.028 0.067,-0.027c0,-1.156 -0.844,-1.239 -1.447,-0.738c-0.12,-0.459 0.215,-0.752 0.643,-0.752c0.054,0 0.067,-0.041 0.041,-0.069c-0.751,-0.835 -1.313,0.209 -1.434,0.376c-0.295,0.417 -1.366,-0.362 -1.795,-0.822c0,0 0.951,-1.03 0.951,-1.976l0,-0.167c0,-0.028 0.014,-0.042 0.04,-0.028c0.094,0.056 0.228,0.097 0.349,0.097c0.214,0 0.629,-0.069 0.629,-0.863c0,-0.055 -0.026,-0.055 -0.053,-0.027c-0.107,0.167 -0.241,0.208 -0.335,0.208c-0.764,0 -2.358,-2.644 -4.233,-2.644c-0.496,0 -1.42,0.362 -1.889,0.891c0.227,0.139 0.268,0.431 0.241,0.64c-0.04,0.334 -0.295,0.501 -0.549,0.585c-0.041,0.013 -0.054,0.041 0,0.069c0.951,0.376 2.679,1.058 3.067,1.406c0.469,0.417 0.375,1.211 0.107,2.296c-0.254,1.044 -0.817,0.905 -1.018,0.863c-0.026,0 -0.04,0.014 -0.026,0.042c0.241,0.32 0.549,0.432 0.803,0.432c0.496,0 0.684,-0.32 0.938,-0.32c0.429,0 1.326,0.64 1.326,1.127c0,0.278 -0.201,0.515 -0.469,0.696c-0.013,0.014 -0.013,0.028 0.014,0.042c0.174,0.014 1.018,0.083 1.179,-0.696Zm20.764,0.682c0.027,0 0.027,-0.028 0.014,-0.042c-0.268,-0.181 -0.469,-0.431 -0.469,-0.696c0,-0.487 0.897,-1.127 1.326,-1.127c0.254,0 0.442,0.32 0.938,0.32c0.254,0 0.549,-0.112 0.803,-0.432c0.014,-0.028 0.014,-0.041 -0.026,-0.041c-0.201,0.027 -0.764,0.18 -1.019,-0.863c-0.267,-1.086 -0.361,-1.879 0.108,-2.297c0.388,-0.348 2.116,-1.03 3.067,-1.406c0.054,-0.028 0.041,-0.055 0,-0.069c-0.267,-0.07 -0.522,-0.237 -0.549,-0.585c-0.027,-0.209 0.014,-0.501 0.241,-0.64c-0.469,-0.529 -1.393,-0.891 -1.889,-0.891c-1.875,0 -3.469,2.645 -4.233,2.645c-0.094,0 -0.214,-0.042 -0.335,-0.209c-0.027,-0.042 -0.053,-0.042 -0.053,0.028c0,0.793 0.402,0.863 0.629,0.863c0.121,0 0.255,-0.042 0.349,-0.098c0.026,-0.014 0.04,0 0.04,0.028l0,0.167c0,0.946 0.951,1.976 0.951,1.976c-0.429,0.46 -1.5,1.239 -1.795,0.822c-0.134,-0.167 -0.683,-1.211 -1.434,-0.376c-0.026,0.028 -0.013,0.069 0.041,0.069c0.415,0 0.75,0.293 0.643,0.752c-0.603,-0.501 -1.447,-0.418 -1.447,0.738c0,0.041 0.04,0.055 0.067,0.028c0.402,-0.599 1.031,-0.195 1.125,-0.112c-0.429,0.07 -1.165,0.585 -0.509,1.503c0.027,0.042 0.054,0.028 0.054,0c0.067,-0.598 0.415,-0.709 0.71,-0.709c0.589,0 1.031,0.57 1.473,-0.042c0.134,0.793 0.978,0.724 1.179,0.696Zm-15.205,-15.269c-0.053,0.083 -0.254,0 -0.335,-0.042c-0.013,-0.014 -0.026,0 -0.013,0.014c0.054,0.111 0.241,0.445 0.522,0.445c0.134,0 0.309,-0.083 0.362,-0.167c0,0 1.112,0.376 1.648,0.529c-0.214,0.293 -0.348,0.655 -0.375,1.03c-0.442,-0.278 -2.211,-1.266 -2.211,-1.266l-0.549,0.779c-0.094,0.125 -0.522,-0.209 -0.442,-0.334l0.415,-0.598c-0.134,-0.153 -0.469,-0.056 -0.562,-0.028c-0.014,0 -0.027,0 -0.014,-0.028c0.054,-0.111 0.255,-0.473 0.777,-0.32c0,-0.334 -0.469,-0.223 -0.589,-0.195c-0.014,0 -0.014,0 0,-0.014c0.134,-0.139 0.509,-0.459 0.938,-0.195l0.187,-0.264l-0.375,-0.418l0.241,-0.334l0.268,0.376l2.036,-2.895c0.054,-0.07 0.456,-0.195 0.603,-0.223c0.014,0.167 0.027,0.599 -0.013,0.668l-2.01,2.923l0.429,0.139l-0.228,0.334l-0.495,-0.236l-0.215,0.32Zm7.141,-0.473c0,0.264 0.16,0.654 0.495,0.543c0.014,-0.014 0.027,0 0.027,0.013c-0.054,0.293 -0.563,0.571 -0.79,0.223c-0.201,0.459 -0.161,0.877 0.281,1.128c0.027,0.013 0.027,0.041 0,0.069c-0.268,0.195 -0.683,0.153 -0.871,-0.236c-0.362,0.292 -0.308,0.89 -0.094,1.099c0,0 -1.018,0.626 -1.929,0.181c-0.603,-0.306 -1.098,-0.696 -1.889,-0.626c0.108,-1.142 0.657,-1.448 1.675,-1.615c0.804,-0.139 0.911,-0.529 0.79,-0.821c-0.281,-0.07 -0.777,0.181 -0.777,0.181c-0.093,-0.153 0.041,-0.32 0.041,-0.32c-0.054,-0.07 -0.081,-0.279 -0.081,-0.279c0.563,0 0.67,-0.125 0.67,-0.125c0.107,-0.612 -0.496,-0.682 -0.951,-0.348c-0.215,-0.195 -0.174,-0.459 -0.174,-0.459c-0.067,-0.028 -0.107,-0.139 -0.107,-0.181c0,-0.139 0.669,-0.543 0.843,-0.585c0.041,-0.208 0.282,-0.487 1.005,-0.417c0.081,-0.195 -0.053,-0.919 -0.134,-1.1c-0.027,-0.056 0.014,-0.097 0.081,-0.056c0.254,0.167 0.495,0.766 0.669,0.78c0,0 0.804,-0.432 0.844,-0.418c0.041,0.028 0.148,0.947 0.148,0.947c0.107,0.139 0.723,0 0.991,0.125c0.067,0.028 0.067,0.084 0,0.098c-0.201,0.041 -0.844,0.32 -0.951,0.515c0.362,0.598 0.188,1.447 0.188,1.684Z" style="fill:#fff;fill-rule:nonzero;"/></svg>